<?xml version="1.0" encoding="UTF-8" standalone="no"?>
<!DOCTYPE svg PUBLIC "-//W3C//DTD SVG 1.0//EN" "http://www.w3.org/TR/2001/PR-SVG-20010719/DTD/svg10.dtd">
<svg width="86cm" height="110cm" viewBox="-324 -421 1705 2182" xmlns="http://www.w3.org/2000/svg" xmlns:xlink="http://www.w3.org/1999/xlink">
  <rect style="fill: none; fill-opacity:0; stroke-width: 2; stroke-dasharray: 20 4 4 4 4 4; stroke: #000000" x="-40" y="-220" width="280" height="360"/>
  <g>
    <rect style="fill: #e6e6fa" x="-120" y="760" width="740" height="1000"/>
    <rect style="fill: none; fill-opacity:0; stroke-width: 2; stroke: #000000" x="-120" y="760" width="740" height="1000"/>
  </g>
  <g>
    <path style="fill: #ffffff" d="M -53.3333 820 L 53.3333,820 C 68.0609,820 80,828.954 80,840 C 80,851.046 68.0609,860 53.3333,860 L -53.3333,860 C -68.0609,860 -80,851.046 -80,840 C -80,828.954 -68.0609,820 -53.3333,820z"/>
    <path style="fill: none; fill-opacity:0; stroke-width: 2; stroke: #000000" d="M -53.3333 820 L 53.3333,820 C 68.0609,820 80,828.954 80,840 C 80,851.046 68.0609,860 53.3333,860 L -53.3333,860 C -68.0609,860 -80,851.046 -80,840 C -80,828.954 -68.0609,820 -53.3333,820"/>
    <text font-size="12.8" style="fill: #000000;text-anchor:middle;font-family:sans-serif;font-style:normal;font-weight:normal" x="-8.88178e-15" y="844">
      <tspan x="-8.88178e-15" y="844">newMarObj</tspan>
    </text>
  </g>
  <g>
    <path style="fill: #ffffff" d="M 300 860 L 380,860 C 391.046,860 400,868.954 400,880 C 400,891.046 391.046,900 380,900 L 300,900 C 288.954,900 280,891.046 280,880 C 280,868.954 288.954,860 300,860z"/>
    <path style="fill: none; fill-opacity:0; stroke-width: 2; stroke: #000000" d="M 300 860 L 380,860 C 391.046,860 400,868.954 400,880 C 400,891.046 391.046,900 380,900 L 300,900 C 288.954,900 280,891.046 280,880 C 280,868.954 288.954,860 300,860"/>
    <text font-size="12.8" style="fill: #000000;text-anchor:middle;font-family:sans-serif;font-style:normal;font-weight:normal" x="340" y="884">
      <tspan x="340" y="884">delMarObj</tspan>
    </text>
  </g>
  <g>
    <polyline style="fill: none; fill-opacity:0; stroke-width: 2; stroke: #000000" points="0,860 0,920 526.8,920 526.8,949.349 "/>
    <polygon style="fill: #000000" points="526.8,956.849 521.8,946.849 526.8,949.349 531.8,946.849 "/>
    <polygon style="fill: none; fill-opacity:0; stroke-width: 2; stroke: #000000" points="526.8,956.849 521.8,946.849 526.8,949.349 531.8,946.849 "/>
  </g>
  <g>
    <polyline style="fill: none; fill-opacity:0; stroke-width: 2; stroke: #000000" points="0,860 0,881 139.5,881 139.5,880 270.264,880 "/>
    <polygon style="fill: #000000" points="277.764,880 267.764,885 270.264,880 267.764,875 "/>
    <polygon style="fill: none; fill-opacity:0; stroke-width: 2; stroke: #000000" points="277.764,880 267.764,885 270.264,880 267.764,875 "/>
  </g>
  <g>
    <path style="fill: #ffffff" d="M 239.5 1520 L 317.5,1520 C 328.27,1520 337,1528.95 337,1540 C 337,1551.05 328.27,1560 317.5,1560 L 239.5,1560 C 228.73,1560 220,1551.05 220,1540 C 220,1528.95 228.73,1520 239.5,1520z"/>
    <path style="fill: none; fill-opacity:0; stroke-width: 2; stroke: #000000" d="M 239.5 1520 L 317.5,1520 C 328.27,1520 337,1528.95 337,1540 C 337,1551.05 328.27,1560 317.5,1560 L 239.5,1560 C 228.73,1560 220,1551.05 220,1540 C 220,1528.95 228.73,1520 239.5,1520"/>
    <text font-size="12.8" style="fill: #000000;text-anchor:middle;font-family:sans-serif;font-style:normal;font-weight:normal" x="278.5" y="1544">
      <tspan x="278.5" y="1544">newCLRLIN</tspan>
    </text>
  </g>
  <g>
    <path style="fill: #ffffff" d="M 99.5375 1520 L 177.688,1520 C 188.478,1520 197.225,1528.95 197.225,1540 C 197.225,1551.05 188.478,1560 177.688,1560 L 99.5375,1560 C 88.7472,1560 80,1551.05 80,1540 C 80,1528.95 88.7472,1520 99.5375,1520z"/>
    <path style="fill: none; fill-opacity:0; stroke-width: 2; stroke: #000000" d="M 99.5375 1520 L 177.688,1520 C 188.478,1520 197.225,1528.95 197.225,1540 C 197.225,1551.05 188.478,1560 177.688,1560 L 99.5375,1560 C 88.7472,1560 80,1551.05 80,1540 C 80,1528.95 88.7472,1520 99.5375,1520"/>
    <text font-size="12.8" style="fill: #000000;text-anchor:middle;font-family:sans-serif;font-style:normal;font-weight:normal" x="138.613" y="1544">
      <tspan x="138.613" y="1544">newLEGLIN</tspan>
    </text>
  </g>
  <g>
    <path style="fill: #ffffff" d="M 82.575 980 L 172.875,980 C 185.343,980 195.45,988.954 195.45,1000 C 195.45,1011.05 185.343,1020 172.875,1020 L 82.575,1020 C 70.1072,1020 60,1011.05 60,1000 C 60,988.954 70.1072,980 82.575,980z"/>
    <path style="fill: none; fill-opacity:0; stroke-width: 2; stroke: #000000" d="M 82.575 980 L 172.875,980 C 185.343,980 195.45,988.954 195.45,1000 C 195.45,1011.05 185.343,1020 172.875,1020 L 82.575,1020 C 70.1072,1020 60,1011.05 60,1000 C 60,988.954 70.1072,980 82.575,980"/>
    <text font-size="12.8" style="fill: #000000;text-anchor:middle;font-family:sans-serif;font-style:normal;font-weight:normal" x="127.725" y="1004">
      <tspan x="127.725" y="1004">newOWNSHP</tspan>
    </text>
  </g>
  <g>
    <path style="fill: #ffffff" d="M 80.2125 1100 L 161.062,1100 C 172.226,1100 181.275,1108.95 181.275,1120 C 181.275,1131.05 172.226,1140 161.062,1140 L 80.2125,1140 C 69.0494,1140 60,1131.05 60,1120 C 60,1108.95 69.0494,1100 80.2125,1100z"/>
    <path style="fill: none; fill-opacity:0; stroke-width: 2; stroke: #000000" d="M 80.2125 1100 L 161.062,1100 C 172.226,1100 181.275,1108.95 181.275,1120 C 181.275,1131.05 172.226,1140 161.062,1140 L 80.2125,1140 C 69.0494,1140 60,1131.05 60,1120 C 60,1108.95 69.0494,1100 80.2125,1100"/>
    <text font-size="12.8" style="fill: #000000;text-anchor:middle;font-family:sans-serif;font-style:normal;font-weight:normal" x="120.637" y="1124">
      <tspan x="120.637" y="1124">newVESSEL</tspan>
    </text>
  </g>
  <g>
    <path style="fill: #ffffff" d="M 480.337 1440 L 561.688,1440 C 572.92,1440 582.025,1448.95 582.025,1460 C 582.025,1471.05 572.92,1480 561.688,1480 L 480.337,1480 C 469.105,1480 460,1471.05 460,1460 C 460,1448.95 469.105,1440 480.337,1440z"/>
    <path style="fill: none; fill-opacity:0; stroke-width: 2; stroke: #000000" d="M 480.337 1440 L 561.688,1440 C 572.92,1440 582.025,1448.95 582.025,1460 C 582.025,1471.05 572.92,1480 561.688,1480 L 480.337,1480 C 469.105,1480 460,1471.05 460,1460 C 460,1448.95 469.105,1440 480.337,1440"/>
    <text font-size="12.8" style="fill: #000000;text-anchor:middle;font-family:sans-serif;font-style:normal;font-weight:normal" x="521.013" y="1464">
      <tspan x="521.013" y="1464">newPASTRK</tspan>
    </text>
  </g>
  <g>
    <path style="fill: #ffffff" d="M 461.7 959.086 L 548.5,959.086 C 560.485,959.086 570.2,968.04 570.2,979.086 C 570.2,990.131 560.485,999.086 548.5,999.086 L 461.7,999.086 C 449.715,999.086 440,990.131 440,979.086 C 440,968.04 449.715,959.086 461.7,959.086z"/>
    <path style="fill: none; fill-opacity:0; stroke-width: 2; stroke: #000000" d="M 461.7 959.086 L 548.5,959.086 C 560.485,959.086 570.2,968.04 570.2,979.086 C 570.2,990.131 560.485,999.086 548.5,999.086 L 461.7,999.086 C 449.715,999.086 440,990.131 440,979.086 C 440,968.04 449.715,959.086 461.7,959.086"/>
    <text font-size="12.8" style="fill: #000000;text-anchor:middle;font-family:sans-serif;font-style:normal;font-weight:normal" x="505.1" y="983.086">
      <tspan x="505.1" y="983.086">pushPosition</tspan>
    </text>
  </g>
  <g>
    <path style="fill: #ffffff" d="M 276.588 1120 L 342.938,1120 C 352.099,1120 359.525,1128.95 359.525,1140 C 359.525,1151.05 352.099,1160 342.938,1160 L 276.588,1160 C 267.426,1160 260,1151.05 260,1140 C 260,1128.95 267.426,1120 276.588,1120z"/>
    <path style="fill: none; fill-opacity:0; stroke-width: 2; stroke: #000000" d="M 276.588 1120 L 342.938,1120 C 352.099,1120 359.525,1128.95 359.525,1140 C 359.525,1151.05 352.099,1160 342.938,1160 L 276.588,1160 C 267.426,1160 260,1151.05 260,1140 C 260,1128.95 267.426,1120 276.588,1120"/>
    <text font-size="12.8" style="fill: #000000;text-anchor:middle;font-family:sans-serif;font-style:normal;font-weight:normal" x="309.762" y="1144">
      <tspan x="309.762" y="1144">setVector</tspan>
    </text>
  </g>
  <g>
    <path style="fill: #ffffff" d="M -58.7 1520 L 26.5,1520 C 38.2637,1520 47.8,1528.95 47.8,1540 C 47.8,1551.05 38.2637,1560 26.5,1560 L -58.7,1560 C -70.4637,1560 -80,1551.05 -80,1540 C -80,1528.95 -70.4637,1520 -58.7,1520z"/>
    <path style="fill: none; fill-opacity:0; stroke-width: 2; stroke: #000000" d="M -58.7 1520 L 26.5,1520 C 38.2637,1520 47.8,1528.95 47.8,1540 C 47.8,1551.05 38.2637,1560 26.5,1560 L -58.7,1560 C -70.4637,1560 -80,1551.05 -80,1540 C -80,1528.95 -70.4637,1520 -58.7,1520"/>
    <text font-size="12.8" style="fill: #000000;text-anchor:middle;font-family:sans-serif;font-style:normal;font-weight:normal" x="-16.1" y="1544">
      <tspan x="-16.1" y="1544">newVRMEBL</tspan>
    </text>
  </g>
  <g>
    <path style="fill: #ffffff" d="M 79.575 1640 L 157.875,1640 C 168.686,1640 177.45,1648.95 177.45,1660 C 177.45,1671.05 168.686,1680 157.875,1680 L 79.575,1680 C 68.764,1680 60,1671.05 60,1660 C 60,1648.95 68.764,1640 79.575,1640z"/>
    <path style="fill: none; fill-opacity:0; stroke-width: 2; stroke: #000000" d="M 79.575 1640 L 157.875,1640 C 168.686,1640 177.45,1648.95 177.45,1660 C 177.45,1671.05 168.686,1680 157.875,1680 L 79.575,1680 C 68.764,1680 60,1671.05 60,1660 C 60,1648.95 68.764,1640 79.575,1640"/>
    <text font-size="12.8" style="fill: #000000;text-anchor:middle;font-family:sans-serif;font-style:normal;font-weight:normal" x="118.725" y="1664">
      <tspan x="118.725" y="1664">setVRMEBL</tspan>
    </text>
  </g>
  <g>
    <path style="fill: #ffffff" d="M 379.3 1520 L 456.5,1520 C 467.159,1520 475.8,1528.95 475.8,1540 C 475.8,1551.05 467.159,1560 456.5,1560 L 379.3,1560 C 368.641,1560 360,1551.05 360,1540 C 360,1528.95 368.641,1520 379.3,1520z"/>
    <path style="fill: none; fill-opacity:0; stroke-width: 2; stroke: #000000" d="M 379.3 1520 L 456.5,1520 C 467.159,1520 475.8,1528.95 475.8,1540 C 475.8,1551.05 467.159,1560 456.5,1560 L 379.3,1560 C 368.641,1560 360,1551.05 360,1540 C 360,1528.95 368.641,1520 379.3,1520"/>
    <text font-size="12.8" style="fill: #000000;text-anchor:middle;font-family:sans-serif;font-style:normal;font-weight:normal" x="417.9" y="1544">
      <tspan x="417.9" y="1544">newCSYMB</tspan>
    </text>
  </g>
  <text font-size="12.8" style="fill: #000000;text-anchor:start;font-family:sans-serif;font-style:normal;font-weight:normal" x="250" y="1260">
    <tspan x="250" y="1260"></tspan>
  </text>
  <text font-size="12.8" style="fill: #000000;text-anchor:start;font-family:sans-serif;font-style:normal;font-weight:normal" x="250" y="1260">
    <tspan x="250" y="1260"></tspan>
  </text>
  <text font-size="12.8" style="fill: #000000;text-anchor:start;font-family:sans-serif;font-style:normal;font-weight:normal" x="250" y="1260">
    <tspan x="250" y="1260"></tspan>
  </text>
  <text font-size="12.8" style="fill: #000000;text-anchor:start;font-family:sans-serif;font-style:normal;font-weight:normal" x="540" y="1440">
    <tspan x="540" y="1440"></tspan>
  </text>
  <text font-size="12.8" style="fill: #000000;text-anchor:start;font-family:sans-serif;font-style:normal;font-weight:normal" x="100" y="780">
    <tspan x="100" y="780">Mariner Object</tspan>
  </text>
  <g>
    <line style="fill: none; fill-opacity:0; stroke-width: 2; stroke: #000000" x1="181.275" y1="1120" x2="250.564" y2="1137.6"/>
    <polygon style="fill: #000000" points="257.833,1139.45 246.91,1141.83 250.564,1137.6 249.372,1132.14 "/>
    <polygon style="fill: none; fill-opacity:0; stroke-width: 2; stroke: #000000" points="257.833,1139.45 246.91,1141.83 250.564,1137.6 249.372,1132.14 "/>
  </g>
  <g>
    <line style="fill: none; fill-opacity:0; stroke-width: 2; stroke: #000000" x1="195.45" y1="1000" x2="430.299" y2="979.915"/>
    <polygon style="fill: #000000" points="437.772,979.276 428.234,985.11 430.299,979.915 427.382,975.146 "/>
    <polygon style="fill: none; fill-opacity:0; stroke-width: 2; stroke: #000000" points="437.772,979.276 428.234,985.11 430.299,979.915 427.382,975.146 "/>
  </g>
  <g>
    <line style="fill: none; fill-opacity:0; stroke-width: 2; stroke: #000000" x1="150.3" y1="1020" x2="257.708" y2="1119.25"/>
    <polygon style="fill: #000000" points="263.216,1124.34 252.478,1121.23 257.708,1119.25 259.265,1113.88 "/>
    <polygon style="fill: none; fill-opacity:0; stroke-width: 2; stroke: #000000" points="263.216,1124.34 252.478,1121.23 257.708,1119.25 259.265,1113.88 "/>
  </g>
  <g>
    <polyline style="fill: none; fill-opacity:0; stroke-width: 2; stroke: #000000" points="521.013,1440 521.013,1140 505.1,1140 505.1,1008.82 "/>
    <polygon style="fill: #000000" points="505.1,1001.32 510.1,1011.32 505.1,1008.82 500.1,1011.32 "/>
    <polygon style="fill: none; fill-opacity:0; stroke-width: 2; stroke: #000000" points="505.1,1001.32 510.1,1011.32 505.1,1008.82 500.1,1011.32 "/>
  </g>
  <g>
    <polyline style="fill: none; fill-opacity:0; stroke-width: 2; stroke: #000000" points="-16.1,1560 -20,1560 -20,1660 50.2639,1660 "/>
    <polygon style="fill: #000000" points="57.7639,1660 47.7639,1665 50.2639,1660 47.7639,1655 "/>
    <polygon style="fill: none; fill-opacity:0; stroke-width: 2; stroke: #000000" points="57.7639,1660 47.7639,1665 50.2639,1660 47.7639,1655 "/>
  </g>
  <g>
    <ellipse style="fill: #ffffff" cx="-131.362" cy="-366.832" rx="52.323" ry="52.323"/>
    <ellipse style="fill: none; fill-opacity:0; stroke-width: 2; stroke: #000000" cx="-131.362" cy="-366.832" rx="52.323" ry="52.323"/>
    <text font-size="12.8" style="fill: #000000;text-anchor:middle;font-family:sans-serif;font-style:italic;font-weight:700" x="-131.362" y="-370.932">
      <tspan x="-131.362" y="-370.932">Main Prog.</tspan>
      <tspan x="-131.362" y="-354.932">Start</tspan>
    </text>
  </g>
  <g>
    <path style="fill: #ffffff" d="M -218.033 121.079 L -124.699,121.079 C -111.813,121.079 -101.366,130.033 -101.366,141.079 C -101.366,152.124 -111.813,161.079 -124.699,161.079 L -218.033,161.079 C -230.919,161.079 -241.366,152.124 -241.366,141.079 C -241.366,130.033 -230.919,121.079 -218.033,121.079z"/>
    <path style="fill: none; fill-opacity:0; stroke-width: 2; stroke: #000000" d="M -218.033 121.079 L -124.699,121.079 C -111.813,121.079 -101.366,130.033 -101.366,141.079 C -101.366,152.124 -111.813,161.079 -124.699,161.079 L -218.033,161.079 C -230.919,161.079 -241.366,152.124 -241.366,141.079 C -241.366,130.033 -230.919,121.079 -218.033,121.079"/>
    <text font-size="12.8" style="fill: #000000;text-anchor:middle;font-family:sans-serif;font-style:normal;font-weight:normal" x="-171.366" y="145.079">
      <tspan x="-171.366" y="145.079">init</tspan>
    </text>
  </g>
  <g>
    <path style="fill: #ffffff" d="M 579.507 158.787 L 672.84,158.787 C 685.727,158.787 696.174,167.741 696.174,178.787 C 696.174,189.832 685.727,198.787 672.84,198.787 L 579.507,198.787 C 566.62,198.787 556.174,189.832 556.174,178.787 C 556.174,167.741 566.62,158.787 579.507,158.787z"/>
    <path style="fill: none; fill-opacity:0; stroke-width: 2; stroke: #000000" d="M 579.507 158.787 L 672.84,158.787 C 685.727,158.787 696.174,167.741 696.174,178.787 C 696.174,189.832 685.727,198.787 672.84,198.787 L 579.507,198.787 C 566.62,198.787 556.174,189.832 556.174,178.787 C 556.174,167.741 566.62,158.787 579.507,158.787"/>
    <text font-size="12.8" style="fill: #000000;text-anchor:middle;font-family:sans-serif;font-style:normal;font-weight:normal" x="626.174" y="182.787">
      <tspan x="626.174" y="182.787">loadCell</tspan>
    </text>
  </g>
  <g>
    <path style="fill: #ffffff" d="M 26.6667 220 L 133.333,220 C 148.061,220 160,228.954 160,240 C 160,251.046 148.061,260 133.333,260 L 26.6667,260 C 11.9391,260 0,251.046 0,240 C 0,228.954 11.9391,220 26.6667,220z"/>
    <path style="fill: none; fill-opacity:0; stroke-width: 2; stroke: #000000" d="M 26.6667 220 L 133.333,220 C 148.061,220 160,228.954 160,240 C 160,251.046 148.061,260 133.333,260 L 26.6667,260 C 11.9391,260 0,251.046 0,240 C 0,228.954 11.9391,220 26.6667,220"/>
    <text font-size="12.8" style="fill: #000000;text-anchor:middle;font-family:sans-serif;font-style:normal;font-weight:normal" x="80" y="244">
      <tspan x="80" y="244">loadPLib</tspan>
    </text>
  </g>
  <text font-size="22.6229" style="fill: #000000;text-anchor:start;font-family:sans-serif;font-style:normal;font-weight:normal" x="341.829" y="-303.658">
    <tspan x="341.829" y="-303.658">libS52 Call FlowChart 1.152 2014DEC07</tspan>
  </text>
  <g>
    <polyline style="fill: none; fill-opacity:0; stroke-width: 2; stroke: #000000" points="-171.366,161.079 -171.366,182.079 191.904,182.079 191.904,178.787 546.438,178.787 "/>
    <polygon style="fill: #000000" points="553.938,178.787 543.938,183.787 546.438,178.787 543.938,173.787 "/>
    <polygon style="fill: none; fill-opacity:0; stroke-width: 2; stroke: #000000" points="553.938,178.787 543.938,183.787 546.438,178.787 543.938,173.787 "/>
  </g>
  <g>
    <polyline style="fill: none; fill-opacity:0; stroke-width: 2; stroke: #000000" points="-171.366,161.079 -171.366,240 -9.73607,240 "/>
    <polygon style="fill: #000000" points="-2.23607,240 -12.2361,245 -9.73607,240 -12.2361,235 "/>
    <polygon style="fill: none; fill-opacity:0; stroke-width: 2; stroke: #000000" points="-2.23607,240 -12.2361,245 -9.73607,240 -12.2361,235 "/>
  </g>
  <g>
    <path style="fill: #ffffff" d="M 758.549 39.3015 L 851.882,39.3015 C 864.769,39.3015 875.215,48.7035 875.215,60.3015 C 875.215,71.8995 864.769,81.3015 851.882,81.3015 L 758.549,81.3015 C 745.662,81.3015 735.215,71.8995 735.215,60.3015 C 735.215,48.7035 745.662,39.3015 758.549,39.3015z"/>
    <path style="fill: none; fill-opacity:0; stroke-width: 2; stroke: #000000" d="M 758.549 39.3015 L 851.882,39.3015 C 864.769,39.3015 875.215,48.7035 875.215,60.3015 C 875.215,71.8995 864.769,81.3015 851.882,81.3015 L 758.549,81.3015 C 745.662,81.3015 735.215,71.8995 735.215,60.3015 C 735.215,48.7035 745.662,39.3015 758.549,39.3015"/>
    <text font-size="12.8" style="fill: #000000;text-anchor:middle;font-family:sans-serif;font-style:normal;font-weight:normal" x="805.215" y="64.3015">
      <tspan x="805.215" y="64.3015">loadObject</tspan>
    </text>
  </g>
  <g>
    <polyline style="fill: none; fill-opacity:0; stroke-width: 2; stroke-dasharray: 4; stroke: #000000" points="626.174,148.079 626.174,60.3015 725.479,60.3015 "/>
    <polygon style="fill: #000000" points="626.174,155.579 621.174,145.579 626.174,148.079 631.174,145.579 "/>
    <polygon style="fill: none; fill-opacity:0; stroke-width: 2; stroke: #000000" points="626.174,155.579 621.174,145.579 626.174,148.079 631.174,145.579 "/>
    <polygon style="fill: #000000" points="732.979,60.3015 722.979,65.3015 725.479,60.3015 722.979,55.3015 "/>
    <polygon style="fill: none; fill-opacity:0; stroke-width: 2; stroke: #000000" points="732.979,60.3015 722.979,65.3015 725.479,60.3015 722.979,55.3015 "/>
  </g>
  <g>
    <path style="fill: #ffffff" d="M 23.3333 80 L 116.667,80 C 129.553,80 140,88.9543 140,100 C 140,111.046 129.553,120 116.667,120 L 23.3333,120 C 10.4467,120 0,111.046 0,100 C 0,88.9543 10.4467,80 23.3333,80z"/>
    <path style="fill: none; fill-opacity:0; stroke-width: 2; stroke: #000000" d="M 23.3333 80 L 116.667,80 C 129.553,80 140,88.9543 140,100 C 140,111.046 129.553,120 116.667,120 L 23.3333,120 C 10.4467,120 0,111.046 0,100 C 0,88.9543 10.4467,80 23.3333,80"/>
    <text font-size="12.8" style="fill: #000000;text-anchor:middle;font-family:sans-serif;font-style:normal;font-weight:normal" x="70" y="104">
      <tspan x="70" y="104">version</tspan>
    </text>
  </g>
  <g>
    <polyline style="fill: none; fill-opacity:0; stroke-width: 2; stroke: #000000" points="-131.362,-314.509 -131.362,100 -9.73607,100 "/>
    <polygon style="fill: #000000" points="-2.23607,100 -12.2361,105 -9.73607,100 -12.2361,95 "/>
    <polygon style="fill: none; fill-opacity:0; stroke-width: 2; stroke: #000000" points="-2.23607,100 -12.2361,105 -9.73607,100 -12.2361,95 "/>
  </g>
  <g>
    <path style="fill: #ffffff" d="M -298.837 364.42 L -205.503,364.42 C -192.617,364.42 -182.17,373.374 -182.17,384.42 C -182.17,395.465 -192.617,404.42 -205.503,404.42 L -298.837,404.42 C -311.723,404.42 -322.17,395.465 -322.17,384.42 C -322.17,373.374 -311.723,364.42 -298.837,364.42z"/>
    <path style="fill: none; fill-opacity:0; stroke-width: 2; stroke: #000000" d="M -298.837 364.42 L -205.503,364.42 C -192.617,364.42 -182.17,373.374 -182.17,384.42 C -182.17,395.465 -192.617,404.42 -205.503,404.42 L -298.837,404.42 C -311.723,404.42 -322.17,395.465 -322.17,384.42 C -322.17,373.374 -311.723,364.42 -298.837,364.42"/>
    <text font-size="12.8" style="fill: #000000;text-anchor:middle;font-family:sans-serif;font-style:normal;font-weight:normal" x="-252.17" y="388.42">
      <tspan x="-252.17" y="388.42">done</tspan>
    </text>
  </g>
  <g>
    <path style="fill: #ffffff" d="M 743.175 260 L 835.875,260 C 848.674,260 859.05,268.954 859.05,280 C 859.05,291.046 848.674,300 835.875,300 L 743.175,300 C 730.376,300 720,291.046 720,280 C 720,268.954 730.376,260 743.175,260z"/>
    <path style="fill: none; fill-opacity:0; stroke-width: 2; stroke: #000000" d="M 743.175 260 L 835.875,260 C 848.674,260 859.05,268.954 859.05,280 C 859.05,291.046 848.674,300 835.875,300 L 743.175,300 C 730.376,300 720,291.046 720,280 C 720,268.954 730.376,260 743.175,260"/>
    <text font-size="12.8" style="fill: #000000;text-anchor:middle;font-family:sans-serif;font-style:normal;font-weight:normal" x="789.525" y="284">
      <tspan x="789.525" y="284">getCellExtent</tspan>
    </text>
  </g>
  <g>
    <path style="fill: #ffffff" d="M 35.1 -100 L 175.5,-100 C 194.885,-100 210.6,-91.0457 210.6,-80 C 210.6,-68.9543 194.885,-60 175.5,-60 L 35.1,-60 C 15.7148,-60 0,-68.9543 0,-80 C 0,-91.0457 15.7148,-100 35.1,-100z"/>
    <path style="fill: none; fill-opacity:0; stroke-width: 2; stroke: #000000" d="M 35.1 -100 L 175.5,-100 C 194.885,-100 210.6,-91.0457 210.6,-80 C 210.6,-68.9543 194.885,-60 175.5,-60 L 35.1,-60 C 15.7148,-60 0,-68.9543 0,-80 C 0,-91.0457 15.7148,-100 35.1,-100"/>
    <text font-size="12.8" style="fill: #000000;text-anchor:middle;font-family:sans-serif;font-style:normal;font-weight:normal" x="105.3" y="-76">
      <tspan x="105.3" y="-76">get/setTextDisp</tspan>
    </text>
  </g>
  <g>
    <path style="fill: #ffffff" d="M 40.8375 340 L 204.187,340 C 226.741,340 245.025,348.954 245.025,360 C 245.025,371.046 226.741,380 204.187,380 L 40.8375,380 C 18.2836,380 0,371.046 0,360 C 0,348.954 18.2836,340 40.8375,340z"/>
    <path style="fill: none; fill-opacity:0; stroke-width: 2; stroke: #000000" d="M 40.8375 340 L 204.187,340 C 226.741,340 245.025,348.954 245.025,360 C 245.025,371.046 226.741,380 204.187,380 L 40.8375,380 C 18.2836,380 0,371.046 0,360 C 0,348.954 18.2836,340 40.8375,340"/>
    <text font-size="12.8" style="fill: #000000;text-anchor:middle;font-family:sans-serif;font-style:normal;font-weight:normal" x="122.512" y="364">
      <tspan x="122.512" y="364">get/setS57ObjClassSupp</tspan>
    </text>
  </g>
  <g>
    <path style="fill: #ffffff" d="M 26.6667 280 L 133.333,280 C 148.061,280 160,288.954 160,300 C 160,311.046 148.061,320 133.333,320 L 26.6667,320 C 11.9391,320 0,311.046 0,300 C 0,288.954 11.9391,280 26.6667,280z"/>
    <path style="fill: none; fill-opacity:0; stroke-width: 2; stroke: #000000" d="M 26.6667 280 L 133.333,280 C 148.061,280 160,288.954 160,300 C 160,311.046 148.061,320 133.333,320 L 26.6667,320 C 11.9391,320 0,311.046 0,300 C 0,288.954 11.9391,280 26.6667,280"/>
    <text font-size="12.8" style="fill: #000000;text-anchor:middle;font-family:sans-serif;font-style:normal;font-weight:normal" x="80" y="304">
      <tspan x="80" y="304">get/setRGB</tspan>
    </text>
  </g>
  <g>
    <polyline style="fill: none; fill-opacity:0; stroke-width: 2; stroke: #000000" points="-131.362,-314.509 -131.362,-80 -9.73607,-80 "/>
    <polygon style="fill: #000000" points="-2.23607,-80 -12.2361,-75 -9.73607,-80 -12.2361,-85 "/>
    <polygon style="fill: none; fill-opacity:0; stroke-width: 2; stroke: #000000" points="-2.23607,-80 -12.2361,-75 -9.73607,-80 -12.2361,-85 "/>
  </g>
  <g>
    <polyline style="fill: none; fill-opacity:0; stroke-width: 2; stroke: #000000" points="-171.366,161.079 -171.366,360 -9.73607,360 "/>
    <polygon style="fill: #000000" points="-2.23607,360 -12.2361,365 -9.73607,360 -12.2361,355 "/>
    <polygon style="fill: none; fill-opacity:0; stroke-width: 2; stroke: #000000" points="-2.23607,360 -12.2361,365 -9.73607,360 -12.2361,355 "/>
  </g>
  <g>
    <polyline style="fill: none; fill-opacity:0; stroke-width: 2; stroke: #000000" points="-171.366,161.079 -171.366,300 -9.73607,300 "/>
    <polygon style="fill: #000000" points="-2.23607,300 -12.2361,305 -9.73607,300 -12.2361,295 "/>
    <polygon style="fill: none; fill-opacity:0; stroke-width: 2; stroke: #000000" points="-2.23607,300 -12.2361,305 -9.73607,300 -12.2361,295 "/>
  </g>
  <g>
    <polyline style="fill: none; fill-opacity:0; stroke-width: 2; stroke: #000000" points="-171.366,161.079 -171.366,840 -89.7361,840 "/>
    <polygon style="fill: #000000" points="-82.2361,840 -92.2361,845 -89.7361,840 -92.2361,835 "/>
    <polygon style="fill: none; fill-opacity:0; stroke-width: 2; stroke: #000000" points="-82.2361,840 -92.2361,845 -89.7361,840 -92.2361,835 "/>
  </g>
  <g>
    <path style="fill: #ffffff" d="M 743.333 340 L 836.667,340 C 849.553,340 860,348.954 860,360 C 860,371.046 849.553,380 836.667,380 L 743.333,380 C 730.447,380 720,371.046 720,360 C 720,348.954 730.447,340 743.333,340z"/>
    <path style="fill: none; fill-opacity:0; stroke-width: 2; stroke: #000000" d="M 743.333 340 L 836.667,340 C 849.553,340 860,348.954 860,360 C 860,371.046 849.553,380 836.667,380 L 743.333,380 C 730.447,380 720,371.046 720,360 C 720,348.954 730.447,340 743.333,340"/>
    <text font-size="12.8" style="fill: #000000;text-anchor:middle;font-family:sans-serif;font-style:normal;font-weight:normal" x="790" y="364">
      <tspan x="790" y="364">get/setView</tspan>
    </text>
  </g>
  <g>
    <polyline style="fill: none; fill-opacity:0; stroke-width: 2; stroke: #000000" points="626.174,198.787 626.174,360 710.264,360 "/>
    <polygon style="fill: #000000" points="717.764,360 707.764,365 710.264,360 707.764,355 "/>
    <polygon style="fill: none; fill-opacity:0; stroke-width: 2; stroke: #000000" points="717.764,360 707.764,365 710.264,360 707.764,355 "/>
  </g>
  <g>
    <ellipse style="fill: #ffffff" cx="-252.17" cy="640.412" rx="50" ry="50"/>
    <ellipse style="fill: none; fill-opacity:0; stroke-width: 2; stroke: #000000" cx="-252.17" cy="640.412" rx="50" ry="50"/>
    <text font-size="12.8" style="fill: #000000;text-anchor:middle;font-family:sans-serif;font-style:italic;font-weight:700" x="-252.17" y="644.312">
      <tspan x="-252.17" y="644.312">Stop</tspan>
    </text>
  </g>
  <g>
    <polyline style="fill: none; fill-opacity:0; stroke-width: 2; stroke: #000000" points="-252.17,404.42 -252.17,405.42 -252.17,589.412 -252.17,580.676 "/>
    <polygon style="fill: #000000" points="-252.17,588.176 -247.17,598.176 -252.17,595.676 -257.17,598.176 "/>
    <polygon style="fill: none; fill-opacity:0; stroke-width: 2; stroke: #000000" points="-252.17,588.176 -247.17,598.176 -252.17,595.676 -257.17,598.176 "/>
  </g>
  <text font-size="12.8" style="fill: #000000;text-anchor:start;font-family:sans-serif;font-style:normal;font-weight:normal" x="90" y="80">
    <tspan x="90" y="80"></tspan>
  </text>
  <g>
    <polyline style="fill: none; fill-opacity:0; stroke-width: 2; stroke-dasharray: 20; stroke: #000000" points="696.174,178.787 696.174,180 930,180 930,569.286 "/>
    <polygon style="fill: #000000" points="930,576.786 925,566.786 930,569.286 935,566.786 "/>
    <polygon style="fill: none; fill-opacity:0; stroke-width: 2; stroke: #000000" points="930,576.786 925,566.786 930,569.286 935,566.786 "/>
  </g>
  <g>
    <polyline style="fill: none; fill-opacity:0; stroke-width: 2; stroke: #000000" points="626.174,198.787 626.174,280 710.264,280 "/>
    <polygon style="fill: #000000" points="717.764,280 707.764,285 710.264,280 707.764,275 "/>
    <polygon style="fill: none; fill-opacity:0; stroke-width: 2; stroke: #000000" points="717.764,280 707.764,285 710.264,280 707.764,275 "/>
  </g>
  <g>
    <polyline style="fill: none; fill-opacity:0; stroke-width: 2; stroke: #000000" points="-131.362,-314.509 -131.362,-96.7151 -171.366,-96.7151 -171.366,111.343 "/>
    <polygon style="fill: #000000" points="-171.366,118.843 -176.366,108.843 -171.366,111.343 -166.366,108.843 "/>
    <polygon style="fill: none; fill-opacity:0; stroke-width: 2; stroke: #000000" points="-171.366,118.843 -176.366,108.843 -171.366,111.343 -166.366,108.843 "/>
  </g>
  <g>
    <rect style="fill: #add8e6" x="660" y="580" width="540" height="760"/>
    <rect style="fill: none; fill-opacity:0; stroke-width: 2; stroke: #000000" x="660" y="580" width="540" height="760"/>
  </g>
  <g>
    <path style="fill: #ffffff" d="M 760 640 L 840,640 C 851.046,640 860,648.954 860,660 C 860,671.046 851.046,680 840,680 L 760,680 C 748.954,680 740,671.046 740,660 C 740,648.954 748.954,640 760,640z"/>
    <path style="fill: none; fill-opacity:0; stroke-width: 2; stroke: #000000" d="M 760 640 L 840,640 C 851.046,640 860,648.954 860,660 C 860,671.046 851.046,680 840,680 L 760,680 C 748.954,680 740,671.046 740,660 C 740,648.954 748.954,640 760,640"/>
    <text font-size="12.8" style="fill: #000000;text-anchor:middle;font-family:sans-serif;font-style:normal;font-weight:normal" x="800" y="664">
      <tspan x="800" y="664">draw</tspan>
    </text>
  </g>
  <g>
    <path style="fill: #ffffff" d="M 760 780 L 840,780 C 851.046,780 860,788.954 860,800 C 860,811.046 851.046,820 840,820 L 760,820 C 748.954,820 740,811.046 740,800 C 740,788.954 748.954,780 760,780z"/>
    <path style="fill: none; fill-opacity:0; stroke-width: 2; stroke: #000000" d="M 760 780 L 840,780 C 851.046,780 860,788.954 860,800 C 860,811.046 851.046,820 840,820 L 760,820 C 748.954,820 740,811.046 740,800 C 740,788.954 748.954,780 760,780"/>
    <text font-size="12.8" style="fill: #000000;text-anchor:middle;font-family:sans-serif;font-style:normal;font-weight:normal" x="800" y="804">
      <tspan x="800" y="804">drawLast</tspan>
    </text>
  </g>
  <g>
    <path style="fill: #ffffff" d="M 1020.4 1200 L 1139.6,1200 C 1156.06,1200 1169.4,1208.95 1169.4,1220 C 1169.4,1231.05 1156.06,1240 1139.6,1240 L 1020.4,1240 C 1003.94,1240 990.6,1231.05 990.6,1220 C 990.6,1208.95 1003.94,1200 1020.4,1200z"/>
    <path style="fill: none; fill-opacity:0; stroke-width: 2; stroke-dasharray: 4; stroke: #000000" d="M 1020.4 1200 L 1139.6,1200 C 1156.06,1200 1169.4,1208.95 1169.4,1220 C 1169.4,1231.05 1156.06,1240 1139.6,1240 L 1020.4,1240 C 1003.94,1240 990.6,1231.05 990.6,1220 C 990.6,1208.95 1003.94,1200 1020.4,1200"/>
    <text font-size="12.8" style="fill: #000000;text-anchor:middle;font-family:sans-serif;font-style:normal;font-weight:normal" x="1080" y="1216">
      <tspan x="1080" y="1216">drawLayer</tspan>
      <tspan x="1080" y="1232">(used by libgv.so)</tspan>
    </text>
  </g>
  <text font-size="12.8" style="fill: #000000;text-anchor:start;font-family:sans-serif;font-style:normal;font-weight:normal" x="880" y="600">
    <tspan x="880" y="600">GL context</tspan>
  </text>
  <g>
    <path style="fill: #ffffff" d="M 760 940 L 840,940 C 851.046,940 860,948.954 860,960 C 860,971.046 851.046,980 840,980 L 760,980 C 748.954,980 740,971.046 740,960 C 740,948.954 748.954,940 760,940z"/>
    <path style="fill: none; fill-opacity:0; stroke-width: 2; stroke: #000000" d="M 760 940 L 840,940 C 851.046,940 860,948.954 860,960 C 860,971.046 851.046,980 840,980 L 760,980 C 748.954,980 740,971.046 740,960 C 740,948.954 748.954,940 760,940"/>
    <text font-size="12.8" style="fill: #000000;text-anchor:middle;font-family:sans-serif;font-style:normal;font-weight:normal" x="800" y="964">
      <tspan x="800" y="964">pickAt</tspan>
    </text>
  </g>
  <g>
    <path style="fill: #ffffff" d="M 769.3 1200 L 886.5,1200 C 902.682,1200 915.8,1208.95 915.8,1220 C 915.8,1231.05 902.682,1240 886.5,1240 L 769.3,1240 C 753.118,1240 740,1231.05 740,1220 C 740,1208.95 753.118,1200 769.3,1200z"/>
    <path style="fill: none; fill-opacity:0; stroke-width: 2; stroke: #000000" d="M 769.3 1200 L 886.5,1200 C 902.682,1200 915.8,1208.95 915.8,1220 C 915.8,1231.05 902.682,1240 886.5,1240 L 769.3,1240 C 753.118,1240 740,1231.05 740,1220 C 740,1208.95 753.118,1200 769.3,1200"/>
    <text font-size="12.8" style="fill: #000000;text-anchor:middle;font-family:sans-serif;font-style:normal;font-weight:normal" x="827.9" y="1224">
      <tspan x="827.9" y="1224">dumpS57IDPixels</tspan>
    </text>
  </g>
  <g>
    <path style="fill: #ffffff" d="M 760 1080 L 840,1080 C 851.046,1080 860,1088.95 860,1100 C 860,1111.05 851.046,1120 840,1120 L 760,1120 C 748.954,1120 740,1111.05 740,1100 C 740,1088.95 748.954,1080 760,1080z"/>
    <path style="fill: none; fill-opacity:0; stroke-width: 2; stroke: #000000" d="M 760 1080 L 840,1080 C 851.046,1080 860,1088.95 860,1100 C 860,1111.05 851.046,1120 840,1120 L 760,1120 C 748.954,1120 740,1111.05 740,1100 C 740,1088.95 748.954,1080 760,1080"/>
    <text font-size="12.8" style="fill: #000000;text-anchor:middle;font-family:sans-serif;font-style:normal;font-weight:normal" x="800" y="1104">
      <tspan x="800" y="1104">xy2LL</tspan>
    </text>
  </g>
  <g>
    <path style="fill: #ffffff" d="M 261.075 260 L 425.375,260 C 448.06,260 466.45,268.954 466.45,280 C 466.45,291.046 448.06,300 425.375,300 L 261.075,300 C 238.39,300 220,291.046 220,280 C 220,268.954 238.39,260 261.075,260z"/>
    <path style="fill: none; fill-opacity:0; stroke-width: 2; stroke-dasharray: 4; stroke: #000000" d="M 261.075 260 L 425.375,260 C 448.06,260 466.45,268.954 466.45,280 C 466.45,291.046 448.06,300 425.375,300 L 261.075,300 C 238.39,300 220,291.046 220,280 C 220,268.954 238.39,260 261.075,260"/>
    <text font-size="12.8" style="fill: #000000;text-anchor:middle;font-family:sans-serif;font-style:normal;font-weight:normal" x="343.225" y="276">
      <tspan x="343.225" y="276">setViewPort</tspan>
      <tspan x="343.225" y="292">(set to fullScreen by init)</tspan>
    </text>
  </g>
  <g>
    <polyline style="fill: none; fill-opacity:0; stroke-width: 2; stroke: #000000" points="-171.366,161.079 -171.366,262.749 -252.17,262.749 -252.17,354.684 "/>
    <polygon style="fill: #000000" points="-252.17,362.184 -257.17,352.184 -252.17,354.684 -247.17,352.184 "/>
    <polygon style="fill: none; fill-opacity:0; stroke-width: 2; stroke: #000000" points="-252.17,362.184 -257.17,352.184 -252.17,354.684 -247.17,352.184 "/>
  </g>
  <g>
    <path style="fill: #ffffff" d="M 463.496 500 L 557.482,500 C 570.458,500 580.978,508.954 580.978,520 C 580.978,531.046 570.458,540 557.482,540 L 463.496,540 C 450.52,540 440,531.046 440,520 C 440,508.954 450.52,500 463.496,500z"/>
    <path style="fill: none; fill-opacity:0; stroke-width: 2; stroke: #000000" d="M 463.496 500 L 557.482,500 C 570.458,500 580.978,508.954 580.978,520 C 580.978,531.046 570.458,540 557.482,540 L 463.496,540 C 450.52,540 440,531.046 440,520 C 440,508.954 450.52,500 463.496,500"/>
    <text font-size="12.8" style="fill: #000000;text-anchor:middle;font-family:sans-serif;font-style:normal;font-weight:normal" x="510.489" y="524">
      <tspan x="510.489" y="524">doneCell</tspan>
    </text>
  </g>
  <g>
    <polyline style="fill: none; fill-opacity:0; stroke-width: 2; stroke: #000000" points="626.174,198.787 626.174,451.756 510.489,451.756 510.489,490.264 "/>
    <polygon style="fill: #000000" points="510.489,497.764 505.489,487.764 510.489,490.264 515.489,487.764 "/>
    <polygon style="fill: none; fill-opacity:0; stroke-width: 2; stroke: #000000" points="510.489,497.764 505.489,487.764 510.489,490.264 515.489,487.764 "/>
  </g>
  <text font-size="12.7998" style="fill: #000000;text-anchor:start;font-family:sans-serif;font-style:normal;font-weight:normal" x="542" y="18">
    <tspan x="542" y="18"></tspan>
  </text>
  <text font-size="12.7998" style="fill: #000000;text-anchor:start;font-family:sans-serif;font-style:normal;font-weight:normal" x="-131.362" y="-366.832">
    <tspan x="-131.362" y="-366.832"></tspan>
  </text>
  <g>
    <path style="fill: #ffffff" d="M 35.1 -180 L 175.5,-180 C 194.885,-180 210.6,-171.046 210.6,-160 C 210.6,-148.954 194.885,-140 175.5,-140 L 35.1,-140 C 15.7148,-140 0,-148.954 0,-160 C 0,-171.046 15.7148,-180 35.1,-180z"/>
    <path style="fill: none; fill-opacity:0; stroke-width: 2; stroke: #000000" d="M 35.1 -180 L 175.5,-180 C 194.885,-180 210.6,-171.046 210.6,-160 C 210.6,-148.954 194.885,-140 175.5,-140 L 35.1,-140 C 15.7148,-140 0,-148.954 0,-160 C 0,-171.046 15.7148,-180 35.1,-180"/>
    <text font-size="12.8" style="fill: #000000;text-anchor:middle;font-family:sans-serif;font-style:normal;font-weight:normal" x="105.3" y="-156">
      <tspan x="105.3" y="-156">get/setMarinerParam</tspan>
    </text>
  </g>
  <g>
    <polyline style="fill: none; fill-opacity:0; stroke-width: 2; stroke: #000000" points="-131.362,-313.608 -131.362,-162.324 0,-162.324 0,-169.736 "/>
    <polygon style="fill: #000000" points="0,-162.236 -5,-172.236 0,-169.736 5,-172.236 "/>
    <polygon style="fill: none; fill-opacity:0; stroke-width: 2; stroke: #000000" points="0,-162.236 -5,-172.236 0,-169.736 5,-172.236 "/>
  </g>
  <text font-size="12.7998" style="fill: #000000;text-anchor:start;font-family:sans-serif;font-style:normal;font-weight:normal" x="72.5057" y="-188.734">
    <tspan x="72.5057" y="-188.734"></tspan>
  </text>
  <g>
    <path style="fill: #ffffff" d="M 35.1 -40 L 175.5,-40 C 194.885,-40 210.6,-31.0457 210.6,-20 C 210.6,-8.9543 194.885,0 175.5,0 L 35.1,0 C 15.7148,0 0,-8.9543 0,-20 C 0,-31.0457 15.7148,-40 35.1,-40z"/>
    <path style="fill: none; fill-opacity:0; stroke-width: 2; stroke: #000000" d="M 35.1 -40 L 175.5,-40 C 194.885,-40 210.6,-31.0457 210.6,-20 C 210.6,-8.9543 194.885,0 175.5,0 L 35.1,0 C 15.7148,0 0,-8.9543 0,-20 C 0,-31.0457 15.7148,-40 35.1,-40"/>
    <text font-size="12.8" style="fill: #000000;text-anchor:middle;font-family:sans-serif;font-style:normal;font-weight:normal" x="105.3" y="-16">
      <tspan x="105.3" y="-16">setEGLcb</tspan>
    </text>
  </g>
  <g>
    <polyline style="fill: none; fill-opacity:0; stroke-width: 2; stroke: #000000" points="-131.362,-314.509 -131.362,-20 -9.73607,-20 "/>
    <polygon style="fill: #000000" points="-2.23607,-20 -12.2361,-15 -9.73607,-20 -12.2361,-25 "/>
    <polygon style="fill: none; fill-opacity:0; stroke-width: 2; stroke: #000000" points="-2.23607,-20 -12.2361,-15 -9.73607,-20 -12.2361,-25 "/>
  </g>
  <text font-size="12.7998" style="fill: #000000;text-anchor:start;font-family:sans-serif;font-style:normal;font-weight:normal" x="122.512" y="360">
    <tspan x="122.512" y="360"></tspan>
  </text>
  <text font-size="12.7998" style="fill: #000000;text-anchor:start;font-family:sans-serif;font-style:normal;font-weight:normal" x="260" y="1420">
    <tspan x="260" y="1420"></tspan>
  </text>
  <text font-size="12.7998" style="fill: #000000;text-anchor:start;font-family:sans-serif;font-style:normal;font-weight:normal" x="-16.1" y="1560">
    <tspan x="-16.1" y="1560"></tspan>
  </text>
  <g>
    <path style="fill: #ffffff" d="M 283.387 1040 L 376.937,1040 C 389.854,1040 400.325,1048.95 400.325,1060 C 400.325,1071.05 389.854,1080 376.937,1080 L 283.387,1080 C 270.471,1080 260,1071.05 260,1060 C 260,1048.95 270.471,1040 283.387,1040z"/>
    <path style="fill: none; fill-opacity:0; stroke-width: 2; stroke: #000000" d="M 283.387 1040 L 376.937,1040 C 389.854,1040 400.325,1048.95 400.325,1060 C 400.325,1071.05 389.854,1080 376.937,1080 L 283.387,1080 C 270.471,1080 260,1071.05 260,1060 C 260,1048.95 270.471,1040 283.387,1040"/>
    <text font-size="12.8" style="fill: #000000;text-anchor:middle;font-family:sans-serif;font-style:normal;font-weight:normal" x="330.162" y="1064">
      <tspan x="330.162" y="1064">setDimension</tspan>
    </text>
  </g>
  <g>
    <line style="fill: none; fill-opacity:0; stroke-width: 2; stroke: #000000" x1="181.275" y1="1120" x2="269.934" y2="1084.27"/>
    <polygon style="fill: #000000" points="276.89,1081.47 269.484,1089.84 269.934,1084.27 265.746,1080.57 "/>
    <polygon style="fill: none; fill-opacity:0; stroke-width: 2; stroke: #000000" points="276.89,1081.47 269.484,1089.84 269.934,1084.27 265.746,1080.57 "/>
  </g>
  <g>
    <line style="fill: none; fill-opacity:0; stroke-width: 2; stroke: #000000" x1="183.947" y1="1018.53" x2="257.603" y2="1042.81"/>
    <polygon style="fill: #000000" points="264.727,1045.16 253.664,1046.78 257.603,1042.81 256.794,1037.28 "/>
    <polygon style="fill: none; fill-opacity:0; stroke-width: 2; stroke: #000000" points="264.727,1045.16 253.664,1046.78 257.603,1042.81 256.794,1037.28 "/>
  </g>
  <g>
    <path style="fill: #ffffff" d="M 256.125 1300 L 400.625,1300 C 420.576,1300 436.75,1308.95 436.75,1320 C 436.75,1331.05 420.576,1340 400.625,1340 L 256.125,1340 C 236.174,1340 220,1331.05 220,1320 C 220,1308.95 236.174,1300 256.125,1300z"/>
    <path style="fill: none; fill-opacity:0; stroke-width: 2; stroke: #000000" d="M 256.125 1300 L 400.625,1300 C 420.576,1300 436.75,1308.95 436.75,1320 C 436.75,1331.05 420.576,1340 400.625,1340 L 256.125,1340 C 236.174,1340 220,1331.05 220,1320 C 220,1308.95 236.174,1300 256.125,1300"/>
    <text font-size="12.8" style="fill: #000000;text-anchor:middle;font-family:sans-serif;font-style:normal;font-weight:normal" x="328.375" y="1324">
      <tspan x="328.375" y="1324">setVESSELlabe</tspan>
    </text>
  </g>
  <g>
    <path style="fill: #ffffff" d="M 256.967 1240 L 404.833,1240 C 425.249,1240 441.8,1248.95 441.8,1260 C 441.8,1271.05 425.249,1280 404.833,1280 L 256.967,1280 C 236.551,1280 220,1271.05 220,1260 C 220,1248.95 236.551,1240 256.967,1240z"/>
    <path style="fill: none; fill-opacity:0; stroke-width: 2; stroke: #000000" d="M 256.967 1240 L 404.833,1240 C 425.249,1240 441.8,1248.95 441.8,1260 C 441.8,1271.05 425.249,1280 404.833,1280 L 256.967,1280 C 236.551,1280 220,1271.05 220,1260 C 220,1248.95 236.551,1240 256.967,1240"/>
    <text font-size="12.8" style="fill: #000000;text-anchor:middle;font-family:sans-serif;font-style:normal;font-weight:normal" x="330.9" y="1264">
      <tspan x="330.9" y="1264">setVESSELstate</tspan>
    </text>
  </g>
  <g>
    <path style="fill: #ffffff" d="M 300.663 800 L 383.313,800 C 394.724,800 403.975,808.954 403.975,820 C 403.975,831.046 394.724,840 383.313,840 L 300.663,840 C 289.251,840 280,831.046 280,820 C 280,808.954 289.251,800 300.663,800z"/>
    <path style="fill: none; fill-opacity:0; stroke-width: 2; stroke: #000000" d="M 300.663 800 L 383.313,800 C 394.724,800 403.975,808.954 403.975,820 C 403.975,831.046 394.724,840 383.313,840 L 300.663,840 C 289.251,840 280,831.046 280,820 C 280,808.954 289.251,800 300.663,800"/>
    <text font-size="12.8" style="fill: #000000;text-anchor:middle;font-family:sans-serif;font-style:normal;font-weight:normal" x="341.988" y="824">
      <tspan x="341.988" y="824">getMarObj</tspan>
    </text>
  </g>
  <text font-size="12.7998" style="fill: #000000;text-anchor:start;font-family:sans-serif;font-style:normal;font-weight:normal" x="540.002" y="-12.4296">
    <tspan x="540.002" y="-12.4296"></tspan>
  </text>
  <text font-size="12.7998" style="fill: #000000;text-anchor:start;font-family:sans-serif;font-style:normal;font-weight:normal" x="827.9" y="1220">
    <tspan x="827.9" y="1220"></tspan>
  </text>
  <g>
    <path style="fill: #ffffff" d="M 29.1427 700 L 145.714,700 C 161.809,700 174.856,708.954 174.856,720 C 174.856,731.046 161.809,740 145.714,740 L 29.1427,740 C 13.0476,740 0,731.046 0,720 C 0,708.954 13.0476,700 29.1427,700z"/>
    <path style="fill: none; fill-opacity:0; stroke-width: 2; stroke: #000000" d="M 29.1427 700 L 145.714,700 C 161.809,700 174.856,708.954 174.856,720 C 174.856,731.046 161.809,740 145.714,740 L 29.1427,740 C 13.0476,740 0,731.046 0,720 C 0,708.954 13.0476,700 29.1427,700"/>
    <text font-size="12.8" style="fill: #000000;text-anchor:middle;font-family:sans-serif;font-style:normal;font-weight:normal" x="87.4282" y="724">
      <tspan x="87.4282" y="724">getAttList</tspan>
    </text>
  </g>
  <text font-size="12.7998" style="fill: #000000;text-anchor:start;font-family:sans-serif;font-style:normal;font-weight:normal" x="386.466" y="546.827">
    <tspan x="386.466" y="546.827"></tspan>
  </text>
  <g>
    <path style="fill: #ffffff" d="M 29.2308 640 L 146.154,640 C 162.298,640 175.385,648.954 175.385,660 C 175.385,671.046 162.298,680 146.154,680 L 29.2308,680 C 13.0871,680 0,671.046 0,660 C 0,648.954 13.0871,640 29.2308,640z"/>
    <path style="fill: none; fill-opacity:0; stroke-width: 2; stroke: #000000" d="M 29.2308 640 L 146.154,640 C 162.298,640 175.385,648.954 175.385,660 C 175.385,671.046 162.298,680 146.154,680 L 29.2308,680 C 13.0871,680 0,671.046 0,660 C 0,648.954 13.0871,640 29.2308,640"/>
    <text font-size="12.8" style="fill: #000000;text-anchor:middle;font-family:sans-serif;font-style:normal;font-weight:normal" x="87.6924" y="664">
      <tspan x="87.6924" y="664">getObjList</tspan>
    </text>
  </g>
  <g>
    <path style="fill: #ffffff" d="M 27.5871 580 L 137.935,580 C 153.171,580 165.522,588.954 165.522,600 C 165.522,611.046 153.171,620 137.935,620 L 27.5871,620 C 12.3511,620 0,611.046 0,600 C 0,588.954 12.3511,580 27.5871,580z"/>
    <path style="fill: none; fill-opacity:0; stroke-width: 2; stroke: #000000" d="M 27.5871 580 L 137.935,580 C 153.171,580 165.522,588.954 165.522,600 C 165.522,611.046 153.171,620 137.935,620 L 27.5871,620 C 12.3511,620 0,611.046 0,600 C 0,588.954 12.3511,580 27.5871,580"/>
    <text font-size="12.8" style="fill: #000000;text-anchor:middle;font-family:sans-serif;font-style:normal;font-weight:normal" x="82.7612" y="604">
      <tspan x="82.7612" y="604">getS57ClassList</tspan>
    </text>
  </g>
  <g>
    <path style="fill: #ffffff" d="M 34.55 460 L 172.75,460 C 191.831,460 207.3,468.954 207.3,480 C 207.3,491.046 191.831,500 172.75,500 L 34.55,500 C 15.4686,500 0,491.046 0,480 C 0,468.954 15.4686,460 34.55,460z"/>
    <path style="fill: none; fill-opacity:0; stroke-width: 2; stroke: #000000" d="M 34.55 460 L 172.75,460 C 191.831,460 207.3,468.954 207.3,480 C 207.3,491.046 191.831,500 172.75,500 L 34.55,500 C 15.4686,500 0,491.046 0,480 C 0,468.954 15.4686,460 34.55,460"/>
    <text font-size="12.8" style="fill: #000000;text-anchor:middle;font-family:sans-serif;font-style:normal;font-weight:normal" x="103.65" y="484">
      <tspan x="103.65" y="484">getPalettesNameList</tspan>
    </text>
  </g>
  <g>
    <path style="fill: #ffffff" d="M 27.7875 520 L 138.938,520 C 154.284,520 166.725,528.954 166.725,540 C 166.725,551.046 154.284,560 138.938,560 L 27.7875,560 C 12.4409,560 0,551.046 0,540 C 0,528.954 12.4409,520 27.7875,520z"/>
    <path style="fill: none; fill-opacity:0; stroke-width: 2; stroke: #000000" d="M 27.7875 520 L 138.938,520 C 154.284,520 166.725,528.954 166.725,540 C 166.725,551.046 154.284,560 138.938,560 L 27.7875,560 C 12.4409,560 0,551.046 0,540 C 0,528.954 12.4409,520 27.7875,520"/>
    <text font-size="12.8" style="fill: #000000;text-anchor:middle;font-family:sans-serif;font-style:normal;font-weight:normal" x="83.3625" y="544">
      <tspan x="83.3625" y="544">getCellNameList</tspan>
    </text>
  </g>
  <text font-size="12.7998" style="fill: #000000;text-anchor:start;font-family:sans-serif;font-style:normal;font-weight:normal" x="180" y="540">
    <tspan x="180" y="540"></tspan>
  </text>
  <g>
    <path style="fill: #ffffff" d="M 28.4375 400 L 142.188,400 C 157.893,400 170.625,408.954 170.625,420 C 170.625,431.046 157.893,440 142.188,440 L 28.4375,440 C 12.7319,440 0,431.046 0,420 C 0,408.954 12.7319,400 28.4375,400z"/>
    <path style="fill: none; fill-opacity:0; stroke-width: 2; stroke: #000000" d="M 28.4375 400 L 142.188,400 C 157.893,400 170.625,408.954 170.625,420 C 170.625,431.046 157.893,440 142.188,440 L 28.4375,440 C 12.7319,440 0,431.046 0,420 C 0,408.954 12.7319,400 28.4375,400"/>
    <text font-size="12.8" style="fill: #000000;text-anchor:middle;font-family:sans-serif;font-style:normal;font-weight:normal" x="85.3125" y="424">
      <tspan x="85.3125" y="424">getPLibNameList</tspan>
    </text>
  </g>
  <g>
    <path style="fill: #ffffff" d="M 980 1080 L 1060,1080 C 1071.05,1080 1080,1088.95 1080,1100 C 1080,1111.05 1071.05,1120 1060,1120 L 980,1120 C 968.954,1120 960,1111.05 960,1100 C 960,1088.95 968.954,1080 980,1080z"/>
    <path style="fill: none; fill-opacity:0; stroke-width: 2; stroke: #000000" d="M 980 1080 L 1060,1080 C 1071.05,1080 1080,1088.95 1080,1100 C 1080,1111.05 1071.05,1120 1060,1120 L 980,1120 C 968.954,1120 960,1111.05 960,1100 C 960,1088.95 968.954,1080 980,1080"/>
    <text font-size="12.8" style="fill: #000000;text-anchor:middle;font-family:sans-serif;font-style:normal;font-weight:normal" x="1020" y="1104">
      <tspan x="1020" y="1104">LL2xy</tspan>
    </text>
  </g>
  <text font-size="12.7998" style="fill: #000000;text-anchor:start;font-family:sans-serif;font-style:normal;font-weight:normal" x="800" y="1100">
    <tspan x="800" y="1100"></tspan>
  </text>
  <g>
    <path style="fill: #ffffff" d="M 960 720 L 1040,720 C 1051.05,720 1060,728.954 1060,740 C 1060,751.046 1051.05,760 1040,760 L 960,760 C 948.954,760 940,751.046 940,740 C 940,728.954 948.954,720 960,720z"/>
    <path style="fill: none; fill-opacity:0; stroke-width: 2; stroke: #000000" d="M 960 720 L 1040,720 C 1051.05,720 1060,728.954 1060,740 C 1060,751.046 1051.05,760 1040,760 L 960,760 C 948.954,760 940,751.046 940,740 C 940,728.954 948.954,720 960,720"/>
    <text font-size="12.8" style="fill: #000000;text-anchor:middle;font-family:sans-serif;font-style:normal;font-weight:normal" x="1000" y="744">
      <tspan x="1000" y="744">drawBlit</tspan>
    </text>
  </g>
  <g>
    <path style="fill: #ffffff" d="M 960 860 L 1040,860 C 1051.05,860 1060,868.954 1060,880 C 1060,891.046 1051.05,900 1040,900 L 960,900 C 948.954,900 940,891.046 940,880 C 940,868.954 948.954,860 960,860z"/>
    <path style="fill: none; fill-opacity:0; stroke-width: 2; stroke: #000000" d="M 960 860 L 1040,860 C 1051.05,860 1060,868.954 1060,880 C 1060,891.046 1051.05,900 1040,900 L 960,900 C 948.954,900 940,891.046 940,880 C 940,868.954 948.954,860 960,860"/>
    <text font-size="12.8" style="fill: #000000;text-anchor:middle;font-family:sans-serif;font-style:normal;font-weight:normal" x="1000" y="884">
      <tspan x="1000" y="884">drawStr</tspan>
    </text>
  </g>
  <g>
    <path style="fill: #ffffff" d="M 35.1 20 L 175.5,20 C 194.885,20 210.6,28.9543 210.6,40 C 210.6,51.0457 194.885,60 175.5,60 L 35.1,60 C 15.7148,60 0,51.0457 0,40 C 0,28.9543 15.7148,20 35.1,20z"/>
    <path style="fill: none; fill-opacity:0; stroke-width: 2; stroke: #000000" d="M 35.1 20 L 175.5,20 C 194.885,20 210.6,28.9543 210.6,40 C 210.6,51.0457 194.885,60 175.5,60 L 35.1,60 C 15.7148,60 0,51.0457 0,40 C 0,28.9543 15.7148,20 35.1,20"/>
    <text font-size="12.8" style="fill: #000000;text-anchor:middle;font-family:sans-serif;font-style:normal;font-weight:normal" x="105.3" y="44">
      <tspan x="105.3" y="44">setRADARCallBack</tspan>
    </text>
  </g>
  <g>
    <polyline style="fill: none; fill-opacity:0; stroke-width: 2; stroke: #000000" points="-131.362,-314.509 -131.362,40 -9.73607,40 "/>
    <polygon style="fill: #000000" points="-2.23607,40 -12.2361,45 -9.73607,40 -12.2361,35 "/>
    <polygon style="fill: none; fill-opacity:0; stroke-width: 2; stroke: #000000" points="-2.23607,40 -12.2361,45 -9.73607,40 -12.2361,35 "/>
  </g>
  <text font-size="12.7998" style="fill: #000000;text-anchor:start;font-family:sans-serif;font-style:normal;font-weight:normal" x="493.859" y="-313.333">
    <tspan x="493.859" y="-313.333"></tspan>
  </text>
  <text font-size="12.7998" style="fill: #000000;text-anchor:start;font-family:sans-serif;font-style:normal;font-weight:normal" x="40" y="-240">
    <tspan x="40" y="-240">Can be called any where</tspan>
  </text>
  <g>
    <polyline style="fill: none; fill-opacity:0; stroke-width: 2; stroke: #000000" points="120.637,1140 120.637,1320 210.264,1320 "/>
    <polygon style="fill: #000000" points="217.764,1320 207.764,1325 210.264,1320 207.764,1315 "/>
    <polygon style="fill: none; fill-opacity:0; stroke-width: 2; stroke: #000000" points="217.764,1320 207.764,1325 210.264,1320 207.764,1315 "/>
  </g>
  <g>
    <polyline style="fill: none; fill-opacity:0; stroke-width: 2; stroke: #000000" points="120.637,1140 120.637,1260 210.264,1260 "/>
    <polygon style="fill: #000000" points="217.764,1260 207.764,1265 210.264,1260 207.764,1255 "/>
    <polygon style="fill: none; fill-opacity:0; stroke-width: 2; stroke: #000000" points="217.764,1260 207.764,1265 210.264,1260 207.764,1255 "/>
  </g>
  <g>
    <polyline style="fill: none; fill-opacity:0; stroke-width: 2; stroke: #000000" points="120.637,1140 120.637,1200 505.1,1200 505.1,1008.82 "/>
    <polygon style="fill: #000000" points="505.1,1001.32 510.1,1011.32 505.1,1008.82 500.1,1011.32 "/>
    <polygon style="fill: none; fill-opacity:0; stroke-width: 2; stroke: #000000" points="505.1,1001.32 510.1,1011.32 505.1,1008.82 500.1,1011.32 "/>
  </g>
  <text font-size="12.7998" style="fill: #000000;text-anchor:start;font-family:sans-serif;font-style:normal;font-weight:normal" x="360" y="820">
    <tspan x="360" y="820"></tspan>
  </text>
  <g>
    <g>
      <line style="fill: none; fill-opacity:0; stroke-width: 2; stroke: #000000" x1="440" y1="-220" x2="630.264" y2="-220"/>
      <polygon style="fill: #000000" points="637.764,-220 627.764,-215 630.264,-220 627.764,-225 "/>
      <polygon style="fill: none; fill-opacity:0; stroke-width: 2; stroke: #000000" points="637.764,-220 627.764,-215 630.264,-220 627.764,-225 "/>
    </g>
    <text font-size="12.7998" style="fill: #000000;text-anchor:start;font-family:sans-serif;font-style:normal;font-weight:normal" x="440" y="-240">
      <tspan x="440" y="-240">A</tspan>
    </text>
    <text font-size="12.7998" style="fill: #000000;text-anchor:start;font-family:sans-serif;font-style:normal;font-weight:normal" x="620" y="-240">
      <tspan x="620" y="-240">B</tspan>
    </text>
    <text font-size="12.7998" style="fill: #000000;text-anchor:start;font-family:sans-serif;font-style:normal;font-weight:normal" x="500" y="-240">
      <tspan x="500" y="-240">before</tspan>
    </text>
  </g>
  <text font-size="12.7998" style="fill: #000000;text-anchor:start;font-family:sans-serif;font-style:normal;font-weight:normal" x="960" y="660">
    <tspan x="960" y="660">S52-GL-CYCLE</tspan>
  </text>
  <g>
    <polyline style="fill: none; fill-opacity:0; stroke-width: 2; stroke-dasharray: 4; stroke: #000000" points="60,1000 -53.3333,1000 -53.3333,869.736 "/>
    <polygon style="fill: #000000" points="-53.3333,862.236 -48.3333,872.236 -53.3333,869.736 -58.3333,872.236 "/>
    <polygon style="fill: none; fill-opacity:0; stroke-width: 2; stroke: #000000" points="-53.3333,862.236 -48.3333,872.236 -53.3333,869.736 -58.3333,872.236 "/>
  </g>
  <g>
    <polyline style="fill: none; fill-opacity:0; stroke-width: 2; stroke-dasharray: 4; stroke: #000000" points="60,1120 -53.3333,1120 -53.3333,869.736 "/>
    <polygon style="fill: #000000" points="-53.3333,862.236 -48.3333,872.236 -53.3333,869.736 -58.3333,872.236 "/>
    <polygon style="fill: none; fill-opacity:0; stroke-width: 2; stroke: #000000" points="-53.3333,862.236 -48.3333,872.236 -53.3333,869.736 -58.3333,872.236 "/>
  </g>
  <g>
    <polyline style="fill: none; fill-opacity:0; stroke-width: 2; stroke-dasharray: 4; stroke: #000000" points="460,1460 -53.3333,1460 -53.3333,869.736 "/>
    <polygon style="fill: #000000" points="-53.3333,862.236 -48.3333,872.236 -53.3333,869.736 -58.3333,872.236 "/>
    <polygon style="fill: none; fill-opacity:0; stroke-width: 2; stroke: #000000" points="-53.3333,862.236 -48.3333,872.236 -53.3333,869.736 -58.3333,872.236 "/>
  </g>
  <g>
    <polyline style="fill: none; fill-opacity:0; stroke-width: 2; stroke-dasharray: 4; stroke: #000000" points="417.9,1520 417.9,1460 -53.3333,1460 -53.3333,869.736 "/>
    <polygon style="fill: #000000" points="-53.3333,862.236 -48.3333,872.236 -53.3333,869.736 -58.3333,872.236 "/>
    <polygon style="fill: none; fill-opacity:0; stroke-width: 2; stroke: #000000" points="-53.3333,862.236 -48.3333,872.236 -53.3333,869.736 -58.3333,872.236 "/>
  </g>
  <g>
    <polyline style="fill: none; fill-opacity:0; stroke-width: 2; stroke-dasharray: 4; stroke: #000000" points="278.5,1520 278.5,1460 -53.3333,1460 -53.3333,869.736 "/>
    <polygon style="fill: #000000" points="-53.3333,862.236 -48.3333,872.236 -53.3333,869.736 -58.3333,872.236 "/>
    <polygon style="fill: none; fill-opacity:0; stroke-width: 2; stroke: #000000" points="-53.3333,862.236 -48.3333,872.236 -53.3333,869.736 -58.3333,872.236 "/>
  </g>
  <g>
    <polyline style="fill: none; fill-opacity:0; stroke-width: 2; stroke-dasharray: 4; stroke: #000000" points="138.613,1520 138.613,1460 -53.3333,1460 -53.3333,869.736 "/>
    <polygon style="fill: #000000" points="-53.3333,862.236 -48.3333,872.236 -53.3333,869.736 -58.3333,872.236 "/>
    <polygon style="fill: none; fill-opacity:0; stroke-width: 2; stroke: #000000" points="-53.3333,862.236 -48.3333,872.236 -53.3333,869.736 -58.3333,872.236 "/>
  </g>
  <rect style="fill: none; fill-opacity:0; stroke-width: 2; stroke-dasharray: 20 8 4 8; stroke: #000000" x="700" y="620" width="420" height="400"/>
  <g>
    <polyline style="fill: none; fill-opacity:0; stroke-width: 2; stroke-dasharray: 4; stroke: #000000" points="-16.1,1520 -16.1,1460 21.4022,1460 21.4022,1460 -53.3333,1460 -53.3333,869.736 "/>
    <polygon style="fill: #000000" points="-53.3333,862.236 -48.3333,872.236 -53.3333,869.736 -58.3333,872.236 "/>
    <polygon style="fill: none; fill-opacity:0; stroke-width: 2; stroke: #000000" points="-53.3333,862.236 -48.3333,872.236 -53.3333,869.736 -58.3333,872.236 "/>
  </g>
  <g>
    <polyline style="fill: none; fill-opacity:0; stroke-width: 2; stroke: #000000" points="-171.366,161.079 -171.366,420 -9.73607,420 "/>
    <polygon style="fill: #000000" points="-2.23607,420 -12.2361,425 -9.73607,420 -12.2361,415 "/>
    <polygon style="fill: none; fill-opacity:0; stroke-width: 2; stroke: #000000" points="-2.23607,420 -12.2361,425 -9.73607,420 -12.2361,415 "/>
  </g>
  <g>
    <polyline style="fill: none; fill-opacity:0; stroke-width: 2; stroke: #000000" points="-171.366,161.079 -171.366,480 -9.73607,480 "/>
    <polygon style="fill: #000000" points="-2.23607,480 -12.2361,485 -9.73607,480 -12.2361,475 "/>
    <polygon style="fill: none; fill-opacity:0; stroke-width: 2; stroke: #000000" points="-2.23607,480 -12.2361,485 -9.73607,480 -12.2361,475 "/>
  </g>
  <g>
    <polyline style="fill: none; fill-opacity:0; stroke-width: 2; stroke: #000000" points="-171.366,161.079 -171.366,540 -9.73607,540 "/>
    <polygon style="fill: #000000" points="-2.23607,540 -12.2361,545 -9.73607,540 -12.2361,535 "/>
    <polygon style="fill: none; fill-opacity:0; stroke-width: 2; stroke: #000000" points="-2.23607,540 -12.2361,545 -9.73607,540 -12.2361,535 "/>
  </g>
  <g>
    <polyline style="fill: none; fill-opacity:0; stroke-width: 2; stroke: #000000" points="-171.366,161.079 -171.366,600 -9.73607,600 "/>
    <polygon style="fill: #000000" points="-2.23607,600 -12.2361,605 -9.73607,600 -12.2361,595 "/>
    <polygon style="fill: none; fill-opacity:0; stroke-width: 2; stroke: #000000" points="-2.23607,600 -12.2361,605 -9.73607,600 -12.2361,595 "/>
  </g>
  <g>
    <polyline style="fill: none; fill-opacity:0; stroke-width: 2; stroke: #000000" points="-171.366,161.079 -171.366,660 -9.73607,660 "/>
    <polygon style="fill: #000000" points="-2.23607,660 -12.2361,665 -9.73607,660 -12.2361,655 "/>
    <polygon style="fill: none; fill-opacity:0; stroke-width: 2; stroke: #000000" points="-2.23607,660 -12.2361,665 -9.73607,660 -12.2361,655 "/>
  </g>
  <g>
    <polyline style="fill: none; fill-opacity:0; stroke-width: 2; stroke: #000000" points="-171.366,161.079 -171.366,720 -9.73607,720 "/>
    <polygon style="fill: #000000" points="-2.23607,720 -12.2361,725 -9.73607,720 -12.2361,715 "/>
    <polygon style="fill: none; fill-opacity:0; stroke-width: 2; stroke: #000000" points="-2.23607,720 -12.2361,725 -9.73607,720 -12.2361,715 "/>
  </g>
  <text font-size="12.7998" style="fill: #000000;text-anchor:start;font-family:sans-serif;font-style:normal;font-weight:normal" x="600" y="40">
    <tspan x="600" y="40">S52_loadObject_cb</tspan>
  </text>
  <text font-size="12.7998" style="fill: #000000;text-anchor:start;font-family:sans-serif;font-style:normal;font-weight:normal" x="40" y="1440">
    <tspan x="40" y="1440">All Calls 'new*' are specialisation of 'newMarObj'</tspan>
  </text>
  <g>
    <polyline style="fill: none; fill-opacity:0; stroke-width: 2; stroke: #000000" points="-171.366,161.079 -171.366,210.539 343.225,210.539 343.225,250.264 "/>
    <polygon style="fill: #000000" points="343.225,257.764 338.225,247.764 343.225,250.264 348.225,247.764 "/>
    <polygon style="fill: none; fill-opacity:0; stroke-width: 2; stroke: #000000" points="343.225,257.764 338.225,247.764 343.225,250.264 348.225,247.764 "/>
  </g>
  <g>
    <polyline style="fill: none; fill-opacity:0; stroke-width: 2; stroke-dasharray: 4; stroke: #000000" points="468.086,661 599.175,661 599.175,660 730.264,660 "/>
    <polygon style="fill: #000000" points="460.586,661 470.586,656 468.086,661 470.586,666 "/>
    <polygon style="fill: none; fill-opacity:0; stroke-width: 2; stroke: #000000" points="460.586,661 470.586,656 468.086,661 470.586,666 "/>
    <polygon style="fill: #000000" points="737.764,660 727.764,665 730.264,660 727.764,655 "/>
    <polygon style="fill: none; fill-opacity:0; stroke-width: 2; stroke: #000000" points="737.764,660 727.764,665 730.264,660 727.764,655 "/>
  </g>
  <text font-size="12.7998" style="fill: #000000;text-anchor:start;font-family:sans-serif;font-style:normal;font-weight:normal" x="520" y="640">
    <tspan x="520" y="640">S52_RADAR_cb</tspan>
  </text>
  <g>
    <polyline style="fill: none; fill-opacity:0; stroke-width: 2; stroke-dasharray: 4; stroke: #000000" points="-251.102,141.079 -280.683,141.079 -280.683,20 -310.264,20 "/>
    <polygon style="fill: #000000" points="-243.602,141.079 -253.602,146.079 -251.102,141.079 -253.602,136.079 "/>
    <polygon style="fill: none; fill-opacity:0; stroke-width: 2; stroke: #000000" points="-243.602,141.079 -253.602,146.079 -251.102,141.079 -253.602,136.079 "/>
    <polygon style="fill: #000000" points="-317.764,20 -307.764,15 -310.264,20 -307.764,25 "/>
    <polygon style="fill: none; fill-opacity:0; stroke-width: 2; stroke: #000000" points="-317.764,20 -307.764,15 -310.264,20 -307.764,25 "/>
  </g>
  <text font-size="12.7998" style="fill: #000000;text-anchor:start;font-family:sans-serif;font-style:normal;font-weight:normal" x="-280" y="80">
    <tspan x="-280" y="80">S52_log_cb</tspan>
  </text>
  <g>
    <polyline style="fill: none; fill-opacity:0; stroke-width: 2; stroke-dasharray: 4; stroke: #000000" points="1129.74,820 1121,820 1379,820 1370.26,820 "/>
    <polygon style="fill: #000000" points="1122.24,820 1112.24,825 1114.74,820 1112.24,815 "/>
    <polygon style="fill: none; fill-opacity:0; stroke-width: 2; stroke: #000000" points="1122.24,820 1112.24,825 1114.74,820 1112.24,815 "/>
    <polygon style="fill: #000000" points="1377.76,820 1387.76,815 1385.26,820 1387.76,825 "/>
    <polygon style="fill: none; fill-opacity:0; stroke-width: 2; stroke: #000000" points="1377.76,820 1387.76,815 1385.26,820 1387.76,825 "/>
  </g>
  <text font-size="12.7998" style="fill: #000000;text-anchor:start;font-family:sans-serif;font-style:normal;font-weight:normal" x="1240" y="800">
    <tspan x="1240" y="800">S52_EGL_cb</tspan>
  </text>
</svg>
